<?xml version="1.0" encoding="UTF-8" standalone="no"?>
<!-- Created with Inkscape (http://www.inkscape.org/) -->

<svg
   xmlns:dc="http://purl.org/dc/elements/1.1/"
   xmlns:cc="http://creativecommons.org/ns#"
   xmlns:rdf="http://www.w3.org/1999/02/22-rdf-syntax-ns#"
   xmlns:svg="http://www.w3.org/2000/svg"
   xmlns="http://www.w3.org/2000/svg"
   xmlns:sodipodi="http://sodipodi.sourceforge.net/DTD/sodipodi-0.dtd"
   xmlns:inkscape="http://www.inkscape.org/namespaces/inkscape"
   version="1.1"
   id="svg3723"
   width="529"
   height="557"
   viewBox="0 0 529 557"
   sodipodi:docname="Logo.svg"
   inkscape:version="0.92.4 (5da689c313, 2019-01-14)">
  <metadata
     id="metadata3729">
    <rdf:RDF>
      <cc:Work
         rdf:about="">
        <dc:format>image/svg+xml</dc:format>
        <dc:type
           rdf:resource="http://purl.org/dc/dcmitype/StillImage" />
        <dc:title></dc:title>
      </cc:Work>
    </rdf:RDF>
  </metadata>
  <defs
     id="defs3727" />
  <sodipodi:namedview
     pagecolor="#ffffff"
     bordercolor="#666666"
     borderopacity="1"
     objecttolerance="10"
     gridtolerance="10"
     guidetolerance="10"
     inkscape:pageopacity="0"
     inkscape:pageshadow="2"
     inkscape:window-width="1150"
     inkscape:window-height="950"
     id="namedview3725"
     showgrid="false"
     inkscape:zoom="1.03"
     inkscape:cx="264.5"
     inkscape:cy="279.14631"
     inkscape:window-x="0"
     inkscape:window-y="0"
     inkscape:window-maximized="0"
     inkscape:current-layer="svg3723" />
  <path
     style="fill:#000000"
     d="m 266.88681,517.0113 c -0.90659,-0.50735 -3.54958,-3.96029 -5.87331,-7.67319 -5.9156,-9.45208 -15.01981,-20.58673 -16.01566,-19.58752 -0.45869,0.46023 -0.97024,3.76178 -1.13679,7.33678 l -0.3028,6.5 -4.25,0.3075 -4.25,0.3075 v -13.46446 -13.46445 l -5.64246,-4.84305 c -11.17789,-9.5942 -14.30308,-13.34881 -16.02404,-19.25128 -1.40385,-4.81481 -1.46067,-6.63385 -0.40898,-13.09176 1.78276,-10.9471 4.27527,-15.37601 14.23953,-25.3021 l 8.83595,-8.80209 V 383.6331 361.28302 l -3.14922,-1.09782 c -1.73208,-0.60381 -3.86958,-1.10606 -4.75,-1.11613 -0.88043,-0.0101 -5.41645,-1.58982 -10.08004,-3.51057 -14.76523,-6.08121 -21.03734,-14.19008 -21.01097,-27.16395 0.0197,-9.6771 9.19361,-22.99822 21.99023,-31.93114 4.125,-2.87953 10.0875,-7.06603 13.25,-9.30332 l 5.75,-4.06781 v -19.38711 c 0,-10.66291 0.47649,-51.05151 1.05888,-89.75245 1.17072,-77.797929 0.7499,-73.63403 7.73673,-76.553309 4.74832,-1.98397 13.22298,-1.34087 19.52924,1.48198 l 4.82484,2.159729 -0.59753,5.27313 c -0.32864,2.90021 -1.244,15.17312 -2.03413,27.27312 -0.79012,12.1 -2.8119,42.25 -4.49284,67 -1.68094,24.75 -3.42148,50.4 -3.86786,57 -0.44638,6.6 -0.67628,12.17561 -0.51089,12.39024 0.16539,0.21463 2.03842,-1.13537 4.16229,-3 2.12388,-1.86463 5.91156,-5.059 8.41706,-7.09859 5.66115,-4.60842 9.2362,-11.51551 8.36472,-16.16088 -0.37247,-1.98542 -2.40936,-5.17122 -5.10512,-7.98468 -7.10679,-7.41705 -5.86556,-13.08234 3.74614,-17.09836 2.71609,-1.13486 7.26758,-1.54773 17.06204,-1.54773 12.58123,0 13.47644,0.13081 15.39844,2.25 4.14397,4.56913 5.56464,10.77307 5.1385,22.43936 -0.43237,11.83645 -2.38161,17.68117 -8.94456,26.81993 -4.64186,6.46367 -20.81387,17.93692 -36.63496,25.99071 l -13.75099,7 -0.64532,6.5 c -0.35493,3.575 -0.97036,12.59529 -1.36763,20.04508 l -0.7223,13.54509 4.35632,1.95491 c 7.26673,3.26097 17.31438,13.6114 22.56646,23.24646 4.01988,7.37456 4.69352,9.46555 5.10249,15.83818 0.46245,7.20597 0.37652,7.53477 -4.63977,17.75402 -6.17261,12.5749 -12.10208,19.38157 -23.64192,27.13949 -4.62596,3.10991 -8.85233,6.18634 -9.39192,6.83651 -0.53959,0.65016 -1.35342,7.13195 -1.8085,14.40396 -0.74909,11.97027 -0.65736,13.43551 0.96907,15.47907 3.48821,4.38281 7.49033,13.40477 11.64766,26.25723 2.31278,7.15 5.4854,15.73894 7.05026,19.08652 2.92191,6.25064 2.86661,9.02354 -0.14634,7.33741 z m -31.82856,-71.57892 c 0,-5.59164 -0.0224,-5.63471 -2,-3.84501 -1.1,0.99549 -2,2.5401 -2,3.43248 0,1.55965 2.64246,6.06752 3.5567,6.06752 0.24382,0 0.4433,-2.54474 0.4433,-5.65499 z m 22.61526,-57.03031 c 1.56616,-3.67486 0.55775,-11.14567 -2.23284,-16.54208 -1.50554,-2.91139 -1.74009,-3.03427 -2.38716,-1.25062 -0.39466,1.0879 -1.04347,7.378 -1.44179,13.978 l -0.72422,12 2.71426,-2.5 c 1.49283,-1.375 3.32513,-3.93338 4.07175,-5.6853 z m -20.61526,-63.88279 v -11.5681 l -3.04042,2.16497 c -3.94328,2.80786 -5.9095,5.88777 -6.64253,10.40491 -0.47967,2.95587 -0.14009,4.13122 1.7957,6.21513 2.15851,2.32366 5.14807,4.11968 7.13725,4.28779 0.4125,0.0349 0.75,-5.14225 0.75,-11.5047 z m -102,50.62711 c 0,-0.51754 0.45,-1.2191 1,-1.55902 0.62342,-0.38529 1,-10.01038 1,-25.55902 v -24.94098 h -9.80887 c -7.07648,0 -10.3496,0.40899 -11.75,1.4682 -1.06762,0.8075 -2.27863,1.4825 -2.69113,1.5 -0.4125,0.0175 -0.75,-3.7932 -0.75,-8.4682 0,-7.83927 0.95422,-10.66764 2.36163,-7 0.49314,1.28512 4.68727,1.5 29.27824,1.5 25.30479,0 28.91914,-0.19592 30.53139,-1.65499 1.75827,-1.59121 1.82874,-1.32147 1.82874,7 0,4.76025 -0.3375,8.64068 -0.75,8.62319 -0.4125,-0.0175 -1.62351,-0.6925 -2.69113,-1.5 -1.4004,-1.05921 -4.67352,-1.4682 -11.75,-1.4682 h -9.80887 v 25.03138 c 0,21.32763 0.22195,25.11656 1.5,25.60699 3.78641,1.45298 0.70837,2.36163 -8,2.36163 -5.26945,0 -9.5,-0.41904 -9.5,-0.94098 z m 192,0.048 c 0,-0.49116 0.675,-1.15203 1.5,-1.46862 1.26291,-0.48462 1.5,-3.6812 1.5,-20.22362 v -19.64801 l -2.25,0.60297 c -1.2375,0.33164 -2.79497,0.60913 -3.46104,0.61664 -0.66608,0.008 -2.12858,0.9985 -3.25,2.20221 l -2.03896,2.18853 0.0304,-9.93856 c 0.0214,-6.99809 0.32118,-9.44009 1.0132,-8.25376 0.90365,1.54913 1.34413,1.56169 5.46959,0.156 4.79533,-1.63393 5.79933,-3.88541 2.9868,-6.69794 -0.825,-0.825 -1.5,-1.75715 -1.5,-2.07143 0,-0.31429 5.4,-0.57143 12,-0.57143 7.33333,0 12,0.38889 12,1 0,0.55 -0.675,1 -1.5,1 -1.3,0 -1.5,4 -1.5,30 0,19.33333 0.35556,30 1,30 0.55,0 1,0.45 1,1 0,0.6087 -4.5,1 -11.5,1 -6.325,0 -11.5,-0.40186 -11.5,-0.89301 z m 24.46709,-151.50432 c -15.29088,-4.7906 -33.389,-24.03185 -46.89952,-49.86181 -5.88386,-11.24902 -12.56757,-27.90597 -12.56757,-31.32057 0,-2.71861 1.97309,-1.39338 4.08297,2.74232 1.16799,2.28945 3.95975,6.85256 6.2039,10.14024 4.83547,7.08397 32.24519,34.93075 42.21313,42.88623 12.05113,9.6181 16.5,15.27982 16.5,20.99821 0,2.67646 -0.5509,4.03714 -1.93426,4.7775 -2.32634,1.24502 -2.49451,1.237 -7.59865,-0.36212 z m -203.58247,-9.24173 c -2.75331,-3.31753 -0.58322,-9.00808 7.3833,-19.36097 5.87188,-7.63081 7.16537,-8.89797 15.75149,-15.43085 7.01621,-5.33839 20.3184,-18.63702 25.07588,-25.06915 1.62721,-2.2 5.08395,-7.03135 7.68164,-10.73633 2.59769,-3.70498 6.29807,-8.98236 8.22307,-11.72753 1.925,-2.74516 4.0625,-5.00131 4.75,-5.01367 1.55788,-0.028 1.56594,-0.16241 -0.30596,5.1018 -0.85578,2.40665 -2.44786,8.20073 -3.53795,12.87573 -2.10299,9.01891 -6.24201,21.78506 -8.45949,26.09197 -6.59637,12.81182 -20.85998,29.04797 -32.4466,36.93373 -10.47138,7.12673 -21.13383,9.92783 -24.11538,6.33527 z m 238.05698,-4.3092 c -5.89746,-1.78952 -9.30077,-4.35914 -26.7836,-20.2225 -5.8619,-5.31891 -12.233,-11.75 -14.158,-14.29131 -1.925,-2.54132 -6.66132,-8.56988 -10.52515,-13.39679 -8.60586,-10.75093 -20.83827,-29.74412 -20.0147,-31.0767 1.10666,-1.7906 3.19191,-0.0323 10.41224,8.77979 3.93945,4.80791 9.74226,10.99299 12.89512,13.74461 6.87708,6.00189 26.94755,21.41113 27.88791,21.41113 1.35269,0 15.7943,11.42779 21.60642,17.09738 6.73176,6.56667 8.73816,9.79083 8.73816,14.04168 0,4.11022 -4.12254,5.71389 -10.0584,3.91271 z m -267.37017,-11.6232 c -2.7394,-2.7394 -1.90573,-7.70236 2.36256,-14.06462 4.12004,-6.14128 8.56447,-9.79355 25.90185,-21.28517 14.86597,-9.85352 26.12662,-19.73054 31.0029,-27.19348 2.28245,-3.49318 4.31585,-6.8089 4.51868,-7.36827 0.20282,-0.55937 0.65978,-0.75013 1.01546,-0.42392 1.23712,1.13465 -3.81345,11.48899 -12.0301,24.66332 -12.63866,20.26446 -20.19337,29.08492 -33.34278,38.92923 -10.90963,8.16749 -16.17618,9.99531 -19.42857,6.74291 z m 304.84082,0.20973 c -6.46705,-2.10648 -18.34277,-10.32014 -25.26263,-17.47251 -15.20917,-15.72021 -39.14962,-49.83129 -39.14962,-55.78159 0,-2.9325 2.78448,-1.12347 8.32345,5.40763 7.1581,8.44023 27.92039,28.16637 36.07754,34.27707 3.35446,2.51289 8.80201,6.19145 12.10567,8.17458 5.22993,3.13943 21.66049,14.70354 25.24334,17.76669 1.61617,1.38174 1.61025,5.44596 -0.01,6.79056 -2.14127,1.7771 -12.85371,2.2949 -17.32785,0.83757 z m 18.29048,-20.132 c -3.73849,-1.3304 -9.36349,-3.98096 -12.5,-5.89012 -11.08229,-6.74569 -29.23099,-26.80506 -34.28232,-37.89151 -0.96276,-2.11303 -0.95136,-2.98245 0.055,-4.19506 2.10288,-2.5338 4.60322,-1.74513 7.4386,2.34632 1.63998,2.3665 5.87939,5.83654 10.886,8.91042 4.50999,2.76898 12.24998,8.08048 17.19998,11.80335 4.95,3.72287 12.375,8.63997 16.5,10.9269 6.74178,3.73768 7.64136,4.59613 8.89832,8.49141 1.33417,4.13456 1.29468,4.41729 -0.86078,6.16268 -2.93303,2.37502 -5.0969,2.26721 -13.33481,-0.66439 z m -368.452727,0.27321 c -2.61295,-1.26018 -2.80793,-2.82575 -0.81935,-6.57917 2.24456,-4.23662 7.29596,-7.60622 22.218031,-14.82084 15.859636,-7.66792 25.261826,-13.93058 38.515626,-25.65468 11.96288,-10.58217 16.34519,-13.95684 21.54585,-16.59175 7.47533,-3.78736 9.83484,-2.28995 3.28984,2.08782 -2.16224,1.44627 -7.05443,7.68026 -12.79951,16.31008 -5.11473,7.68297 -11.12913,15.83894 -13.36532,18.12438 -8.74307,8.93563 -32.797376,23.22309 -44.989076,26.72202 -6.442911,1.84907 -10.355931,1.9648 -13.596091,0.40214 z m 414.749997,-9.44072 c -6.97966,-1.08561 -12.74889,-2.99134 -25.85445,-8.54038 -11.79589,-4.99452 -15.80632,-7.26258 -22.5,-12.72463 -12.03789,-9.82295 -22.71679,-17.54144 -29.30593,-21.18174 -3.21179,-1.77442 -6.55248,-3.82823 -7.42376,-4.56402 -2.88475,-2.43615 -22.32266,-12.52726 -27.82241,-14.44388 -9.97983,-3.47789 -25.36407,-1.84413 -34.82317,3.69813 -2.32635,1.36305 -7.19384,4.75014 -10.81665,7.52688 -8.93506,6.84834 -12.25586,8.04461 -23.95363,8.62891 -11.40183,0.56952 -16.9395,-0.55411 -21.45453,-4.35325 -2.38522,-2.00703 -3.04071,-3.35632 -3.02351,-6.2237 0.072,-11.99338 12.43838,-21.992229 33.97804,-27.472837 12.48963,-3.1779 39.41104,-2.80027 57.66115,0.80883 18.83439,3.72463 22.28076,4.911658 39.41984,13.577307 20.93267,10.58371 38.02265,23.19458 57.16915,42.18571 7.20562,7.14714 11.69526,10.69442 16.76995,13.25 3.81149,1.91943 7.59504,3.48988 8.40789,3.48988 2.49736,0 6.57202,2.24771 6.57202,3.62533 0,2.80059 -5.31171,3.90929 -13,2.71346 z M 63.558253,159.51208 c -0.55,-0.13737 -2.2375,-0.5227 -3.75,-0.85629 -1.7999,-0.39698 -2.75,-1.25072 -2.75,-2.47111 0,-2.41555 6.38666,-8.12753 11.5,-10.28514 2.2,-0.92831 8.41412,-3.52896 13.809151,-5.77921 16.6064,-6.92649 21.868366,-9.75231 30.920166,-16.60493 4.80112,-3.63467 9.2802,-6.42486 9.95351,-6.20042 0.67331,0.22444 -3.58338,5.1866 -9.4593,11.02703 -13.908856,13.82482 -32.145766,26.86809 -41.223527,29.48359 -5.28005,1.52129 -7.78333,1.99038 -9,1.68648 z m -23.25,-27.1687 c -11.60595,-0.47394 -11.00621,-2.33993 1.5,-4.66702 17.09838,-3.18158 49.121111,-13.24145 57.195841,-17.96794 1.954786,-1.14423 7.829156,-4.9749 13.054156,-8.51261 12.27137,-8.308607 19.50837,-11.645777 30.54676,-14.085937 15.59744,-3.44798 29.6557,-2.44602 54.96267,3.91731 16.33397,4.10709 21.15077,6.492328 27.33545,13.536297 3.1129,3.5454 4.06249,7.99575 2.54813,11.9421 -0.94155,2.45365 -12.95457,2.04818 -24.89301,-0.84019 -36.62938,-8.86206 -36.58289,-8.85503 -50.71099,-7.67247 -18.32926,1.53421 -23.15136,2.94076 -50.28901,14.66868 -5.499996,2.3769 -13.599996,5.24142 -17.999996,6.3656 -8.533711,2.18032 -24.407171,4.14622 -31.000001,3.8393 -2.2,-0.10242 -7.7125,-0.33782 -12.25,-0.52312 z M 211.55825,76.087383 c -1.1,-0.47269 -11,-0.89128 -22,-0.93021 l -20,-0.0708 v -22.99987 -22.99989 l 20.69098,3.8e-4 c 12.71573,2.4e-4 20.9292,-0.38506 21.30902,-0.99961 1.48934,-2.4098 2.5,-0.59061 2.5,4.5 0,5.42941 -0.61829,6.48171 -2.62772,4.47228 -0.63784,-0.63784 -6.68874,-0.92236 -15.95,-0.75 l -14.92228,0.27772 -0.30226,5.25 -0.30226,5.25 h 10.19202 c 8.53394,0 10.40813,-0.2847 11.52045,-1.75 1.14323,-1.50602 1.33288,-0.7176 1.36025,5.65499 0.0305,7.11134 -0.0407,7.33936 -1.79694,5.75 -1.43631,-1.29984 -3.90412,-1.65499 -11.5,-1.65499 h -9.67126 v 6 6 h 15.94098 c 9.54864,0 16.18882,-0.401 16.55902,-1 1.52718,-2.47103 2.5,-0.52538 2.5,5 0,6.2083 -0.15912,6.43562 -3.5,5 z m 17.25,-1.66228 c 1.75341,-0.70752 1.80063,-42.38709 0.05,-44.13772 -0.93333,-0.93334 0.61525,-1.2 6.96862,-1.2 6.85593,0 8.07596,0.24143 7.59209,1.50239 -0.38385,1.00028 3.88779,6.09696 12.78138,15.25 l 13.35791,13.74761 0.27815,-13.86362 c 0.18787,-9.36381 -0.0953,-14.31361 -0.87245,-15.25 -0.96036,-1.15717 -0.097,-1.38645 5.22186,-1.38677 l 6.37244,-3.8e-4 v 22.99989 22.99989 l -6.71862,4.9e-4 c -4.95031,3.7e-4 -6.59922,-0.32849 -6.26499,-1.2495 0.24949,-0.6875 -6.04281,-8 -13.98288,-16.25 l -14.43649,-15 -0.0485,15.05 c -0.0336,10.43023 0.31984,15.41835 1.15149,16.25 0.93333,0.93333 -0.34444,1.18245 -5.75,1.12105 -3.8225,-0.0434 -6.3875,-0.30592 -5.7,-0.58333 z m 68.05,-0.53772 c 1.69747,-1.69747 1.69747,-41.90253 0,-43.6 -1.63559,-1.6356 32.4317,-1.69213 37.30078,-0.0619 9.17687,3.07253 14.2021,10.77393 14.17992,21.7314 -0.0216,10.65013 -3.87045,17.58964 -11.7807,21.24045 -3.42452,1.58052 -6.6544,1.84928 -22.45,1.86808 -14.35,0.0171 -18.18333,-0.2447 -17.25,-1.17803 z m 32.27426,-6.80406 c 1.96584,-0.54609 4.66584,-2.15484 6,-3.57498 2.1924,-2.33371 2.42574,-3.4379 2.42574,-11.4788 0,-8.24115 -0.19103,-9.08774 -2.59252,-11.48923 -3.24146,-3.24146 -8.11587,-4.39859 -18.65748,-4.42907 l -8.25,-0.0239 v 16 16 l 8.75,-0.006 c 4.8125,-0.003 10.35842,-0.45238 12.32426,-0.99848 z"
     id="path3747"
     inkscape:connector-curvature="0" />
</svg>
